<?xml version="1.0" encoding="UTF-8" standalone="no"?>
<!DOCTYPE svg PUBLIC "-//W3C//DTD SVG 1.1//EN"
 "http://www.w3.org/Graphics/SVG/1.1/DTD/svg11.dtd">
<!-- Generated by graphviz version 7.1.0 (20230121.1956)
 -->
<!-- Pages: 1 -->
<svg width="62pt" height="299pt"
 viewBox="0.00 0.00 62.00 299.00" xmlns="http://www.w3.org/2000/svg" xmlns:xlink="http://www.w3.org/1999/xlink">
<g id="graph0" class="graph" transform="scale(1 1) rotate(0) translate(4 295)">
<polygon fill="white" stroke="none" points="-4,4 -4,-295 58,-295 58,4 -4,4"/>
<!-- fake -->
<g id="node1" class="node">
<title>fake</title>
</g>
<!-- 1 -->
<g id="node3" class="node">
<title>1</title>
<ellipse fill="none" stroke="black" cx="27" cy="-200" rx="27" ry="18"/>
<text text-anchor="middle" x="27" y="-196.3" font-family="Times New Roman,serif" font-size="14.00">1</text>
</g>
<!-- fake&#45;&gt;1 -->
<g id="edge1" class="edge">
<title>fake&#45;&gt;1</title>
<path fill="none" stroke="black" stroke-width="2" d="M27,-254.81C27,-247.23 27,-238.1 27,-229.54"/>
<polygon fill="black" stroke="black" stroke-width="2" points="30.5,-231.06 27,-221.06 23.5,-231.06 30.5,-231.06"/>
</g>
<!-- 0 -->
<g id="node2" class="node">
<title>0</title>
<ellipse fill="none" stroke="black" cx="27" cy="-113" rx="27" ry="18"/>
<text text-anchor="middle" x="27" y="-109.3" font-family="Times New Roman,serif" font-size="14.00">0</text>
</g>
<!-- 2 -->
<g id="node4" class="node">
<title>2</title>
<ellipse fill="none" stroke="black" cx="27" cy="-22" rx="18" ry="18"/>
<ellipse fill="none" stroke="black" cx="27" cy="-22" rx="22" ry="22"/>
<text text-anchor="middle" x="27" y="-18.3" font-family="Times New Roman,serif" font-size="14.00">2</text>
</g>
<!-- 0&#45;&gt;2 -->
<g id="edge3" class="edge">
<title>0&#45;&gt;2</title>
<path fill="none" stroke="black" d="M27,-94.84C27,-83.67 27,-68.74 27,-55.39"/>
<polygon fill="black" stroke="black" points="30.5,-55.7 27,-45.7 23.5,-55.7 30.5,-55.7"/>
<text text-anchor="middle" x="31" y="-65.8" font-family="Times New Roman,serif" font-size="14.00">b</text>
</g>
<!-- 1&#45;&gt;0 -->
<g id="edge2" class="edge">
<title>1&#45;&gt;0</title>
<path fill="none" stroke="black" d="M27,-181.8C27,-170.58 27,-155.67 27,-142.69"/>
<polygon fill="black" stroke="black" points="30.5,-142.98 27,-132.98 23.5,-142.98 30.5,-142.98"/>
<text text-anchor="middle" x="30.5" y="-152.8" font-family="Times New Roman,serif" font-size="14.00">a</text>
</g>
</g>
</svg>
