<?xml version="1.0" encoding="UTF-8" standalone="no"?>
<!DOCTYPE svg PUBLIC "-//W3C//DTD SVG 1.1//EN"
 "http://www.w3.org/Graphics/SVG/1.1/DTD/svg11.dtd">
<!-- Generated by graphviz version 7.1.0 (20230121.1956)
 -->
<!-- Pages: 1 -->
<svg width="124pt" height="220pt"
 viewBox="0.00 0.00 124.00 220.00" xmlns="http://www.w3.org/2000/svg" xmlns:xlink="http://www.w3.org/1999/xlink">
<g id="graph0" class="graph" transform="scale(1 1) rotate(0) translate(4 216)">
<polygon fill="white" stroke="none" points="-4,4 -4,-216 120,-216 120,4 -4,4"/>
<!-- fake -->
<g id="node1" class="node">
<title>fake</title>
</g>
<!-- 1 -->
<g id="node4" class="node">
<title>1</title>
<ellipse fill="none" stroke="black" cx="27" cy="-113" rx="27" ry="18"/>
<text text-anchor="middle" x="27" y="-109.3" font-family="Times New Roman,serif" font-size="14.00">1</text>
</g>
<!-- fake&#45;&gt;1 -->
<g id="edge1" class="edge">
<title>fake&#45;&gt;1</title>
<path fill="none" stroke="black" stroke-width="2" d="M27,-171.6C27,-162.99 27,-152.37 27,-142.6"/>
<polygon fill="black" stroke="black" stroke-width="2" points="30.5,-144.33 27,-134.33 23.5,-144.33 30.5,-144.33"/>
</g>
<!-- 2 -->
<g id="node2" class="node">
<title>2</title>
<ellipse fill="none" stroke="black" cx="94" cy="-190" rx="18" ry="18"/>
<ellipse fill="none" stroke="black" cx="94" cy="-190" rx="22" ry="22"/>
<text text-anchor="middle" x="94" y="-186.3" font-family="Times New Roman,serif" font-size="14.00">2</text>
</g>
<!-- 3 -->
<g id="node3" class="node">
<title>3</title>
<ellipse fill="none" stroke="black" cx="27" cy="-22" rx="18" ry="18"/>
<ellipse fill="none" stroke="black" cx="27" cy="-22" rx="22" ry="22"/>
<text text-anchor="middle" x="27" y="-18.3" font-family="Times New Roman,serif" font-size="14.00">3</text>
</g>
<!-- 1&#45;&gt;3 -->
<g id="edge2" class="edge">
<title>1&#45;&gt;3</title>
<path fill="none" stroke="black" d="M27,-94.84C27,-83.67 27,-68.74 27,-55.39"/>
<polygon fill="black" stroke="black" points="30.5,-55.7 27,-45.7 23.5,-55.7 30.5,-55.7"/>
<text text-anchor="middle" x="31" y="-65.8" font-family="Times New Roman,serif" font-size="14.00">b</text>
</g>
</g>
</svg>
