<?xml version="1.0" encoding="UTF-8" standalone="no"?>
<!DOCTYPE svg PUBLIC "-//W3C//DTD SVG 1.1//EN"
 "http://www.w3.org/Graphics/SVG/1.1/DTD/svg11.dtd">
<!-- Generated by graphviz version 7.1.0 (20230121.1956)
 -->
<!-- Pages: 1 -->
<svg width="134pt" height="386pt"
 viewBox="0.00 0.00 134.00 386.00" xmlns="http://www.w3.org/2000/svg" xmlns:xlink="http://www.w3.org/1999/xlink">
<g id="graph0" class="graph" transform="scale(1 1) rotate(0) translate(4 382)">
<polygon fill="white" stroke="none" points="-4,4 -4,-382 130,-382 130,4 -4,4"/>
<!-- fake -->
<g id="node1" class="node">
<title>fake</title>
</g>
<!-- 1 -->
<g id="node6" class="node">
<title>1</title>
<ellipse fill="none" stroke="black" cx="27" cy="-287" rx="27" ry="18"/>
<text text-anchor="middle" x="27" y="-283.3" font-family="Times New Roman,serif" font-size="14.00">1</text>
</g>
<!-- fake&#45;&gt;1 -->
<g id="edge1" class="edge">
<title>fake&#45;&gt;1</title>
<path fill="none" stroke="black" stroke-width="2" d="M27,-341.81C27,-334.23 27,-325.1 27,-316.54"/>
<polygon fill="black" stroke="black" stroke-width="2" points="30.5,-318.06 27,-308.06 23.5,-318.06 30.5,-318.06"/>
</g>
<!-- 6 -->
<g id="node2" class="node">
<title>6</title>
<ellipse fill="none" stroke="black" cx="27" cy="-113" rx="27" ry="18"/>
<text text-anchor="middle" x="27" y="-109.3" font-family="Times New Roman,serif" font-size="14.00">6</text>
</g>
<!-- 8 -->
<g id="node7" class="node">
<title>8</title>
<ellipse fill="none" stroke="black" cx="63" cy="-22" rx="18" ry="18"/>
<ellipse fill="none" stroke="black" cx="63" cy="-22" rx="22" ry="22"/>
<text text-anchor="middle" x="63" y="-18.3" font-family="Times New Roman,serif" font-size="14.00">8</text>
</g>
<!-- 6&#45;&gt;8 -->
<g id="edge2" class="edge">
<title>6&#45;&gt;8</title>
<path fill="none" stroke="black" d="M33.77,-95.26C38.53,-83.5 45.03,-67.43 50.69,-53.43"/>
<polygon fill="black" stroke="black" points="53.93,-54.76 54.43,-44.18 47.44,-52.13 53.93,-54.76"/>
<text text-anchor="middle" x="51.5" y="-65.8" font-family="Times New Roman,serif" font-size="14.00">ε</text>
</g>
<!-- 5 -->
<g id="node3" class="node">
<title>5</title>
<ellipse fill="none" stroke="black" cx="27" cy="-200" rx="27" ry="18"/>
<text text-anchor="middle" x="27" y="-196.3" font-family="Times New Roman,serif" font-size="14.00">5</text>
</g>
<!-- 5&#45;&gt;6 -->
<g id="edge5" class="edge">
<title>5&#45;&gt;6</title>
<path fill="none" stroke="black" d="M27,-181.8C27,-170.58 27,-155.67 27,-142.69"/>
<polygon fill="black" stroke="black" points="30.5,-142.98 27,-132.98 23.5,-142.98 30.5,-142.98"/>
<text text-anchor="middle" x="31" y="-152.8" font-family="Times New Roman,serif" font-size="14.00">b</text>
</g>
<!-- 2 -->
<g id="node4" class="node">
<title>2</title>
<ellipse fill="none" stroke="black" cx="99" cy="-200" rx="27" ry="18"/>
<text text-anchor="middle" x="99" y="-196.3" font-family="Times New Roman,serif" font-size="14.00">2</text>
</g>
<!-- 3 -->
<g id="node5" class="node">
<title>3</title>
<ellipse fill="none" stroke="black" cx="99" cy="-113" rx="27" ry="18"/>
<text text-anchor="middle" x="99" y="-109.3" font-family="Times New Roman,serif" font-size="14.00">3</text>
</g>
<!-- 2&#45;&gt;3 -->
<g id="edge3" class="edge">
<title>2&#45;&gt;3</title>
<path fill="none" stroke="black" d="M99,-181.8C99,-170.58 99,-155.67 99,-142.69"/>
<polygon fill="black" stroke="black" points="102.5,-142.98 99,-132.98 95.5,-142.98 102.5,-142.98"/>
<text text-anchor="middle" x="102.5" y="-152.8" font-family="Times New Roman,serif" font-size="14.00">a</text>
</g>
<!-- 3&#45;&gt;8 -->
<g id="edge4" class="edge">
<title>3&#45;&gt;8</title>
<path fill="none" stroke="black" d="M92.23,-95.26C87.47,-83.5 80.97,-67.43 75.31,-53.43"/>
<polygon fill="black" stroke="black" points="78.56,-52.13 71.57,-44.18 72.07,-54.76 78.56,-52.13"/>
<text text-anchor="middle" x="87.5" y="-65.8" font-family="Times New Roman,serif" font-size="14.00">ε</text>
</g>
<!-- 1&#45;&gt;5 -->
<g id="edge6" class="edge">
<title>1&#45;&gt;5</title>
<path fill="none" stroke="black" d="M27,-268.8C27,-257.58 27,-242.67 27,-229.69"/>
<polygon fill="black" stroke="black" points="30.5,-229.98 27,-219.98 23.5,-229.98 30.5,-229.98"/>
<text text-anchor="middle" x="30.5" y="-239.8" font-family="Times New Roman,serif" font-size="14.00">ε</text>
</g>
</g>
</svg>
