<?xml version="1.0" encoding="UTF-8" standalone="no"?>
<!DOCTYPE svg PUBLIC "-//W3C//DTD SVG 1.1//EN"
 "http://www.w3.org/Graphics/SVG/1.1/DTD/svg11.dtd">
<!-- Generated by graphviz version 7.1.0 (20230121.1956)
 -->
<!-- Pages: 1 -->
<svg width="422pt" height="316pt"
 viewBox="0.00 0.00 422.00 316.00" xmlns="http://www.w3.org/2000/svg" xmlns:xlink="http://www.w3.org/1999/xlink">
<g id="graph0" class="graph" transform="scale(1 1) rotate(0) translate(4 312)">
<polygon fill="white" stroke="none" points="-4,4 -4,-312 418,-312 418,4 -4,4"/>
<!-- fake -->
<g id="node1" class="node">
<title>fake</title>
</g>
<!-- 1 -->
<g id="node4" class="node">
<title>1</title>
<ellipse fill="none" stroke="black" cx="27" cy="-203" rx="27" ry="18"/>
<text text-anchor="middle" x="27" y="-199.3" font-family="Times New Roman,serif" font-size="14.00">1</text>
</g>
<!-- fake&#45;&gt;1 -->
<g id="edge1" class="edge">
<title>fake&#45;&gt;1</title>
<path fill="none" stroke="black" stroke-width="2" d="M27,-271.8C27,-260.58 27,-245.67 27,-232.68"/>
<polygon fill="black" stroke="black" stroke-width="2" points="30.5,-234.49 27,-224.49 23.5,-234.49 30.5,-234.49"/>
</g>
<!-- 4 -->
<g id="node2" class="node">
<title>4</title>
<ellipse fill="none" stroke="black" cx="99" cy="-290" rx="27" ry="18"/>
<text text-anchor="middle" x="99" y="-286.3" font-family="Times New Roman,serif" font-size="14.00">4</text>
</g>
<!-- 5 -->
<g id="node5" class="node">
<title>5</title>
<ellipse fill="none" stroke="black" cx="99" cy="-203" rx="27" ry="18"/>
<text text-anchor="middle" x="99" y="-199.3" font-family="Times New Roman,serif" font-size="14.00">5</text>
</g>
<!-- 4&#45;&gt;5 -->
<g id="edge3" class="edge">
<title>4&#45;&gt;5</title>
<path fill="none" stroke="black" d="M99,-271.8C99,-260.58 99,-245.67 99,-232.68"/>
<polygon fill="black" stroke="black" points="102.5,-232.98 99,-222.98 95.5,-232.98 102.5,-232.98"/>
<text text-anchor="middle" x="102.5" y="-242.8" font-family="Times New Roman,serif" font-size="14.00">a</text>
</g>
<!-- 8 -->
<g id="node3" class="node">
<title>8</title>
<ellipse fill="none" stroke="black" cx="243" cy="-203" rx="27" ry="18"/>
<text text-anchor="middle" x="243" y="-199.3" font-family="Times New Roman,serif" font-size="14.00">8</text>
</g>
<!-- 22 -->
<g id="node13" class="node">
<title>22</title>
<ellipse fill="none" stroke="black" cx="27" cy="-116" rx="27" ry="18"/>
<text text-anchor="middle" x="27" y="-112.3" font-family="Times New Roman,serif" font-size="14.00">22</text>
</g>
<!-- 1&#45;&gt;22 -->
<g id="edge9" class="edge">
<title>1&#45;&gt;22</title>
<path fill="none" stroke="black" d="M27,-184.8C27,-173.58 27,-158.67 27,-145.68"/>
<polygon fill="black" stroke="black" points="30.5,-145.98 27,-135.98 23.5,-145.98 30.5,-145.98"/>
<text text-anchor="middle" x="30.5" y="-155.8" font-family="Times New Roman,serif" font-size="14.00">ε</text>
</g>
<!-- 10 -->
<g id="node8" class="node">
<title>10</title>
<ellipse fill="none" stroke="black" cx="146" cy="-116" rx="27" ry="18"/>
<text text-anchor="middle" x="146" y="-112.3" font-family="Times New Roman,serif" font-size="14.00">10</text>
</g>
<!-- 5&#45;&gt;10 -->
<g id="edge6" class="edge">
<title>5&#45;&gt;10</title>
<path fill="none" stroke="black" d="M108.06,-185.61C114.69,-173.61 123.83,-157.09 131.48,-143.26"/>
<polygon fill="black" stroke="black" points="134.46,-145.1 136.23,-134.66 128.33,-141.72 134.46,-145.1"/>
<text text-anchor="middle" x="129.5" y="-155.8" font-family="Times New Roman,serif" font-size="14.00">ε</text>
</g>
<!-- 13 -->
<g id="node6" class="node">
<title>13</title>
<ellipse fill="none" stroke="black" cx="315" cy="-203" rx="27" ry="18"/>
<text text-anchor="middle" x="315" y="-199.3" font-family="Times New Roman,serif" font-size="14.00">13</text>
</g>
<!-- 25 -->
<g id="node7" class="node">
<title>25</title>
<ellipse fill="none" stroke="black" cx="192" cy="-23.5" rx="19.5" ry="19.5"/>
<ellipse fill="none" stroke="black" cx="192" cy="-23.5" rx="23.5" ry="23.5"/>
<text text-anchor="middle" x="192" y="-19.8" font-family="Times New Roman,serif" font-size="14.00">25</text>
</g>
<!-- 10&#45;&gt;25 -->
<g id="edge2" class="edge">
<title>10&#45;&gt;25</title>
<path fill="none" stroke="black" d="M154.44,-98.4C160.62,-86.24 169.17,-69.4 176.56,-54.87"/>
<polygon fill="black" stroke="black" points="179.59,-56.64 181,-46.14 173.35,-53.47 179.59,-56.64"/>
<text text-anchor="middle" x="174.5" y="-68.8" font-family="Times New Roman,serif" font-size="14.00">ε</text>
</g>
<!-- 6 -->
<g id="node9" class="node">
<title>6</title>
<ellipse fill="none" stroke="black" cx="387" cy="-290" rx="27" ry="18"/>
<text text-anchor="middle" x="387" y="-286.3" font-family="Times New Roman,serif" font-size="14.00">6</text>
</g>
<!-- 7 -->
<g id="node14" class="node">
<title>7</title>
<ellipse fill="none" stroke="black" cx="387" cy="-203" rx="27" ry="18"/>
<text text-anchor="middle" x="387" y="-199.3" font-family="Times New Roman,serif" font-size="14.00">7</text>
</g>
<!-- 6&#45;&gt;7 -->
<g id="edge7" class="edge">
<title>6&#45;&gt;7</title>
<path fill="none" stroke="black" d="M387,-271.8C387,-260.58 387,-245.67 387,-232.68"/>
<polygon fill="black" stroke="black" points="390.5,-232.98 387,-222.98 383.5,-232.98 390.5,-232.98"/>
<text text-anchor="middle" x="391" y="-242.8" font-family="Times New Roman,serif" font-size="14.00">b</text>
</g>
<!-- 11 -->
<g id="node10" class="node">
<title>11</title>
<ellipse fill="none" stroke="black" cx="315" cy="-290" rx="27" ry="18"/>
<text text-anchor="middle" x="315" y="-286.3" font-family="Times New Roman,serif" font-size="14.00">11</text>
</g>
<!-- 11&#45;&gt;13 -->
<g id="edge10" class="edge">
<title>11&#45;&gt;13</title>
<path fill="none" stroke="black" d="M315,-271.8C315,-260.58 315,-245.67 315,-232.68"/>
<polygon fill="black" stroke="black" points="318.5,-232.98 315,-222.98 311.5,-232.98 318.5,-232.98"/>
<text text-anchor="middle" x="318.5" y="-242.8" font-family="Times New Roman,serif" font-size="14.00">c</text>
</g>
<!-- 24 -->
<g id="node11" class="node">
<title>24</title>
<ellipse fill="none" stroke="black" cx="218" cy="-116" rx="27" ry="18"/>
<text text-anchor="middle" x="218" y="-112.3" font-family="Times New Roman,serif" font-size="14.00">24</text>
</g>
<!-- 24&#45;&gt;25 -->
<g id="edge5" class="edge">
<title>24&#45;&gt;25</title>
<path fill="none" stroke="black" d="M213.11,-97.97C209.85,-86.61 205.45,-71.3 201.51,-57.6"/>
<polygon fill="black" stroke="black" points="204.89,-56.68 198.76,-48.04 198.16,-58.61 204.89,-56.68"/>
<text text-anchor="middle" x="211.5" y="-68.8" font-family="Times New Roman,serif" font-size="14.00">ε</text>
</g>
<!-- 2 -->
<g id="node12" class="node">
<title>2</title>
<ellipse fill="none" stroke="black" cx="243" cy="-290" rx="27" ry="18"/>
<text text-anchor="middle" x="243" y="-286.3" font-family="Times New Roman,serif" font-size="14.00">2</text>
</g>
<!-- 2&#45;&gt;8 -->
<g id="edge8" class="edge">
<title>2&#45;&gt;8</title>
<path fill="none" stroke="black" d="M243,-271.8C243,-260.58 243,-245.67 243,-232.68"/>
<polygon fill="black" stroke="black" points="246.5,-232.98 243,-222.98 239.5,-232.98 246.5,-232.98"/>
<text text-anchor="middle" x="246.5" y="-242.8" font-family="Times New Roman,serif" font-size="14.00">ε</text>
</g>
<!-- 9 -->
<g id="node15" class="node">
<title>9</title>
<ellipse fill="none" stroke="black" cx="171" cy="-203" rx="27" ry="18"/>
<text text-anchor="middle" x="171" y="-199.3" font-family="Times New Roman,serif" font-size="14.00">9</text>
</g>
<!-- 9&#45;&gt;10 -->
<g id="edge4" class="edge">
<title>9&#45;&gt;10</title>
<path fill="none" stroke="black" d="M166.06,-185.2C162.69,-173.75 158.15,-158.31 154.24,-145.02"/>
<polygon fill="black" stroke="black" points="157.62,-144.1 151.44,-135.5 150.91,-146.08 157.62,-144.1"/>
<text text-anchor="middle" x="163.5" y="-155.8" font-family="Times New Roman,serif" font-size="14.00">ε</text>
</g>
</g>
</svg>
