<?xml version="1.0" encoding="UTF-8" standalone="no"?>
<!DOCTYPE svg PUBLIC "-//W3C//DTD SVG 1.1//EN"
 "http://www.w3.org/Graphics/SVG/1.1/DTD/svg11.dtd">
<!-- Generated by graphviz version 7.1.0 (20230121.1956)
 -->
<!-- Pages: 1 -->
<svg width="105pt" height="117pt"
 viewBox="0.00 0.00 105.00 117.00" xmlns="http://www.w3.org/2000/svg" xmlns:xlink="http://www.w3.org/1999/xlink">
<g id="graph0" class="graph" transform="scale(1 1) rotate(0) translate(4 113)">
<polygon fill="white" stroke="none" points="-4,4 -4,-113 101,-113 101,4 -4,4"/>
<!-- fake -->
<g id="node1" class="node">
<title>fake</title>
</g>
<!-- 0 -->
<g id="node2" class="node">
<title>0</title>
<ellipse fill="none" stroke="black" cx="27" cy="-18" rx="27" ry="18"/>
<text text-anchor="middle" x="27" y="-14.3" font-family="Times New Roman,serif" font-size="14.00">0</text>
</g>
<!-- fake&#45;&gt;0 -->
<g id="edge1" class="edge">
<title>fake&#45;&gt;0</title>
<path fill="none" stroke="black" stroke-width="2" d="M27,-72.81C27,-65.23 27,-56.1 27,-47.54"/>
<polygon fill="black" stroke="black" stroke-width="2" points="30.5,-49.06 27,-39.06 23.5,-49.06 30.5,-49.06"/>
</g>
<!-- 0&#45;&gt;0 -->
<g id="edge2" class="edge">
<title>0&#45;&gt;0</title>
<path fill="none" stroke="black" d="M53.79,-21.41C63.78,-21.53 72,-20.39 72,-18 72,-16.62 69.25,-15.66 65.01,-15.11"/>
<polygon fill="black" stroke="black" points="65.46,-11.63 55.31,-14.66 65.13,-18.62 65.46,-11.63"/>
<text text-anchor="middle" x="75.5" y="-14.3" font-family="Times New Roman,serif" font-size="14.00">a</text>
</g>
<!-- 0&#45;&gt;0 -->
<g id="edge3" class="edge">
<title>0&#45;&gt;0</title>
<path fill="none" stroke="black" d="M52.89,-24.11C71.48,-26.1 90,-24.06 90,-18 90,-13.17 78.24,-10.9 64.05,-11.18"/>
<polygon fill="black" stroke="black" points="64.15,-7.67 54.4,-11.8 64.6,-14.65 64.15,-7.67"/>
</g>
</g>
</svg>
