<?xml version="1.0" encoding="UTF-8" standalone="no"?>
<!DOCTYPE svg PUBLIC "-//W3C//DTD SVG 1.1//EN"
 "http://www.w3.org/Graphics/SVG/1.1/DTD/svg11.dtd">
<!-- Generated by graphviz version 7.1.0 (20230121.1956)
 -->
<!-- Pages: 1 -->
<svg width="131pt" height="117pt"
 viewBox="0.00 0.00 131.00 117.00" xmlns="http://www.w3.org/2000/svg" xmlns:xlink="http://www.w3.org/1999/xlink">
<g id="graph0" class="graph" transform="scale(1 1) rotate(0) translate(4 113)">
<polygon fill="white" stroke="none" points="-4,4 -4,-113 127,-113 127,4 -4,4"/>
<!-- fake -->
<g id="node1" class="node">
<title>fake</title>
</g>
<!-- 0 -->
<g id="node2" class="node">
<title>0</title>
<ellipse fill="none" stroke="black" cx="27" cy="-18" rx="27" ry="18"/>
<text text-anchor="middle" x="27" y="-14.3" font-family="Times New Roman,serif" font-size="14.00">0</text>
</g>
<!-- fake&#45;&gt;0 -->
<g id="edge1" class="edge">
<title>fake&#45;&gt;0</title>
<path fill="none" stroke="black" stroke-width="2" d="M27,-72.81C27,-65.23 27,-56.1 27,-47.54"/>
<polygon fill="black" stroke="black" stroke-width="2" points="30.5,-49.06 27,-39.06 23.5,-49.06 30.5,-49.06"/>
</g>
<!-- 0&#45;&gt;0 -->
<g id="edge2" class="edge">
<title>0&#45;&gt;0</title>
<path fill="none" stroke="black" d="M54.24,-20.28C64.02,-20.33 72,-19.57 72,-18 72,-17.12 69.48,-16.49 65.53,-16.12"/>
<polygon fill="black" stroke="black" points="65.87,-12.63 55.75,-15.77 65.62,-19.63 65.87,-12.63"/>
</g>
<!-- 0&#45;&gt;0 -->
<g id="edge3" class="edge">
<title>0&#45;&gt;0</title>
<path fill="none" stroke="black" d="M53.54,-22.12C71.91,-23.36 90,-21.99 90,-18 90,-14.85 78.74,-13.33 64.96,-13.44"/>
<polygon fill="black" stroke="black" points="64.91,-9.94 55.05,-13.82 65.18,-16.94 64.91,-9.94"/>
<text text-anchor="middle" x="94" y="-14.3" font-family="Times New Roman,serif" font-size="14.00">b</text>
</g>
<!-- 0&#45;&gt;0 -->
<g id="edge4" class="edge">
<title>0&#45;&gt;0</title>
<path fill="none" stroke="black" d="M53.13,-23.39C79.19,-26.46 108,-24.67 108,-18 108,-12.3 86.91,-10.16 64.51,-11.58"/>
<polygon fill="black" stroke="black" points="64.28,-8.09 54.64,-12.47 64.91,-15.06 64.28,-8.09"/>
<text text-anchor="middle" x="111.5" y="-14.3" font-family="Times New Roman,serif" font-size="14.00">a</text>
</g>
</g>
</svg>
